<svg width="112" height="112" viewBox="0 0 112 112" fill="none" xmlns="http://www.w3.org/2000/svg">
<circle cx="56" cy="56" r="56" fill="#F3EED8"/>
<path d="M59 30C59 28.8954 58.1046 28 57 28C55.8954 28 55 28.8954 55 30L59 30ZM55.5858 86.4142C56.3668 87.1953 57.6332 87.1953 58.4142 86.4142L71.1421 73.6863C71.9232 72.9052 71.9232 71.6389 71.1421 70.8579C70.3611 70.0768 69.0948 70.0768 68.3137 70.8579L57 82.1716L45.6863 70.8579C44.9052 70.0768 43.6389 70.0768 42.8579 70.8579C42.0768 71.6389 42.0768 72.9052 42.8579 73.6863L55.5858 86.4142ZM55 30L55 85L59 85L59 30L55 30Z" fill="black"/>
</svg>
